<svg width="24" height="24" viewBox="0 0 24 24" fill="none" xmlns="http://www.w3.org/2000/svg">
<g clip-path="url(#clip0_1907_3385)">
<path d="M12 2C17.5228 2 22 6.47715 22 12C22 17.5228 17.5228 22 12 22C6.47715 22 2 17.5228 2 12C2 6.47715 6.47715 2 12 2ZM12 7C11.4872 7 11.0645 7.38604 11.0067 7.88338L11 8V11H8C7.44772 11 7 11.4477 7 12C7 12.5128 7.38604 12.9355 7.88338 12.9933L8 13H11V16C11 16.5523 11.4477 17 12 17C12.5128 17 12.9355 16.614 12.9933 16.1166L13 16V13H16C16.5523 13 17 12.5523 17 12C17 11.4872 16.614 11.0645 16.1166 11.0067L16 11H13V8C13 7.44771 12.5523 7 12 7Z" fill="#C1C1C1"/>
</g>
<defs>
<clipPath id="clip0_1907_3385">
<rect width="24" height="24" fill="white"/>
</clipPath>
</defs>
</svg>
