<svg width="424" height="86" viewBox="0 0 424 86" fill="none" xmlns="http://www.w3.org/2000/svg">
<path d="M7.75104 71V14.5724H23.7957C29.4281 14.5724 34.2079 15.4251 38.1351 17.1303C42.0623 18.7838 45.2402 21.0316 47.6689 23.8737C50.0975 26.6641 51.8544 29.7903 52.9396 33.2524C54.0764 36.6629 54.6448 40.0992 54.6448 43.5613C54.6448 47.7986 53.8956 51.5966 52.397 54.9554C50.8985 58.3141 48.8574 61.2079 46.2737 63.6365C43.69 66.0135 40.693 67.8479 37.2825 69.1398C33.9237 70.3799 30.3324 71 26.5085 71H7.75104ZM16.8198 62.3188H24.8808C27.8779 62.3188 30.6166 61.9054 33.0969 61.0787C35.5773 60.2002 37.7217 58.9601 39.5303 57.3582C41.3905 55.7046 42.8116 53.6635 43.7934 51.2349C44.8268 48.8062 45.3436 46.0417 45.3436 42.9412C45.3436 39.4274 44.7493 36.4304 43.5608 33.95C42.424 31.418 40.8996 29.3769 38.9877 27.8267C37.1275 26.2248 35.0864 25.0622 32.8644 24.3387C30.6424 23.6153 28.4463 23.2536 26.276 23.2536H16.8198V62.3188ZM57.4194 71L82.3778 12.2471H82.9204L107.879 71H97.4923L79.8975 26.4315L86.4083 22.0134L66.3331 71H57.4194ZM73.0765 50.0722H92.3766L95.477 57.7457H70.3637L73.0765 50.0722ZM125.047 52.7076L104.196 14.5724H115.28L131.17 44.9565L128.457 45.1115L144.114 14.5724H155.198L134.038 52.7076V71H125.047V52.7076ZM192.078 26.044C190.063 25.0105 187.918 24.1321 185.645 23.4086C183.371 22.6335 181.201 22.246 179.134 22.246C176.343 22.246 174.121 22.8661 172.468 24.1062C170.866 25.3464 170.065 27.0516 170.065 29.2219C170.065 30.7721 170.633 32.1415 171.77 33.33C172.907 34.4668 174.354 35.4744 176.111 36.3529C177.868 37.1796 179.728 37.9806 181.692 38.7557C183.397 39.3758 185.076 40.125 186.73 41.0035C188.435 41.8303 189.959 42.8637 191.303 44.1039C192.646 45.3441 193.706 46.8943 194.481 48.7545C195.308 50.5631 195.721 52.8109 195.721 55.4979C195.721 58.4433 194.972 61.1562 193.473 63.6365C191.975 66.0652 189.83 68.0029 187.04 69.4498C184.249 70.8967 180.839 71.6201 176.808 71.6201C174.483 71.6201 172.184 71.3617 169.91 70.845C167.688 70.3282 165.569 69.6306 163.554 68.7522C161.539 67.8221 159.679 66.7886 157.973 65.6518L162.004 58.5983C163.244 59.5285 164.665 60.3811 166.267 61.1562C167.869 61.9313 169.522 62.5514 171.228 63.0164C172.933 63.4298 174.535 63.6365 176.033 63.6365C177.635 63.6365 179.211 63.3781 180.761 62.8614C182.363 62.3447 183.681 61.4921 184.714 60.3036C185.8 59.1151 186.342 57.539 186.342 55.5754C186.342 53.9736 185.877 52.6042 184.947 51.4674C184.017 50.3306 182.803 49.3488 181.304 48.522C179.857 47.6435 178.255 46.8684 176.498 46.1967C174.741 45.5249 172.933 44.7757 171.073 43.9489C169.264 43.1221 167.585 42.1145 166.034 40.926C164.484 39.6858 163.218 38.1873 162.236 36.4304C161.255 34.6735 160.764 32.5032 160.764 29.9195C160.764 26.8191 161.487 24.1321 162.934 21.8584C164.381 19.5848 166.37 17.7762 168.902 16.4327C171.486 15.0892 174.457 14.3657 177.816 14.2624C181.795 14.2624 185.18 14.7533 187.97 15.7351C190.812 16.6652 193.318 17.802 195.488 19.1456L192.078 26.044ZM249.438 66.5819C248.663 67.1503 247.449 67.8479 245.795 68.6747C244.142 69.5015 242.178 70.2249 239.904 70.845C237.682 71.4134 235.202 71.6718 232.463 71.6201C228.071 71.5684 224.118 70.7933 220.604 69.2948C217.09 67.7446 214.119 65.6776 211.691 63.0939C209.262 60.4586 207.376 57.4615 206.032 54.1027C204.74 50.6923 204.095 47.0751 204.095 43.2513C204.095 38.9624 204.766 35.0352 206.11 31.4697C207.453 27.9042 209.365 24.8296 211.846 22.246C214.326 19.6106 217.271 17.5695 220.682 16.1227C224.092 14.6758 227.813 13.9524 231.843 13.9524C235.409 13.9524 238.587 14.4433 241.377 15.4251C244.219 16.3552 246.596 17.4145 248.508 18.603L244.942 27.1291C243.496 26.0957 241.687 25.088 239.517 24.1062C237.346 23.1244 234.892 22.6335 232.153 22.6335C229.673 22.6335 227.296 23.1503 225.022 24.1837C222.749 25.1655 220.759 26.5866 219.054 28.4468C217.349 30.2554 215.979 32.374 214.946 34.8027C213.964 37.2313 213.473 39.8667 213.473 42.7087C213.473 45.6541 213.912 48.367 214.791 50.8473C215.721 53.276 217.013 55.3946 218.666 57.2032C220.372 59.0117 222.387 60.4328 224.712 61.4662C227.089 62.448 229.725 62.9389 232.618 62.9389C235.564 62.9389 238.122 62.4997 240.292 61.6212C242.514 60.6911 244.297 59.6576 245.64 58.5208L249.438 66.5819ZM335.923 50.6923C335.923 52.9142 336.491 54.9554 337.628 56.8156C338.816 58.6242 340.367 60.0969 342.279 61.2337C344.19 62.3188 346.335 62.8614 348.712 62.8614C351.192 62.8614 353.414 62.3188 355.378 61.2337C357.341 60.0969 358.892 58.6242 360.028 56.8156C361.165 54.9554 361.734 52.9142 361.734 50.6923V14.5724H370.647V50.9248C370.647 55.007 369.666 58.6242 367.702 61.7763C365.738 64.8767 363.103 67.3053 359.796 69.0622C356.489 70.7675 352.794 71.6201 348.712 71.6201C344.681 71.6201 341.013 70.7675 337.705 69.0622C334.398 67.3053 331.763 64.8767 329.799 61.7763C327.887 58.6242 326.932 55.007 326.932 50.9248V14.5724H335.923V50.6923ZM381.205 14.5724H418.953V23.2536H404.381V71H395.39V23.2536H381.205V14.5724Z" fill="#6D6D6D"/>
<path d="M309.33 25.0241C312.328 28.7476 314.347 33.1616 315.203 37.8644C316.059 42.5671 315.726 47.4094 314.234 51.9505C312.741 56.4917 310.137 60.5875 306.657 63.8653C303.178 67.1432 298.934 69.4989 294.313 70.7183C289.691 71.9376 284.837 71.9818 280.194 70.8469C275.55 69.7119 271.264 67.4339 267.726 64.2199C264.188 61.006 261.509 56.9583 259.934 52.4451C258.359 47.9319 257.938 43.0965 258.708 38.3789L266.631 39.6729C266.076 43.0695 266.379 46.5509 267.513 49.8003C268.647 53.0497 270.575 55.964 273.123 58.2779C275.671 60.5919 278.756 62.2321 282.1 63.0492C285.443 63.8663 288.937 63.8345 292.265 62.9566C295.593 62.0787 298.648 60.3826 301.153 58.0226C303.658 55.6626 305.533 52.7137 306.608 49.4442C307.682 46.1747 307.922 42.6883 307.306 39.3024C306.689 35.9165 305.235 32.7385 303.077 30.0577L309.33 25.0241Z" fill="#6D6D6D"/>
<path d="M283.408 14.5593C286.064 14.2237 288.755 14.2621 291.401 14.6731L290.168 22.6052C288.263 22.3093 286.326 22.2817 284.414 22.5232L283.408 14.5593Z" fill="#EBA12A"/>
<path d="M298.187 16.6064C300.653 17.6514 302.96 19.0367 305.041 20.7218L299.989 26.9601C298.491 25.7469 296.83 24.7495 295.055 23.9971L298.187 16.6064Z" fill="#EBA12A"/>
<path d="M269.607 20.2127C271.735 18.5881 274.081 17.2697 276.575 16.2959L279.495 23.7736C277.699 24.4747 276.01 25.4239 274.477 26.5936L269.607 20.2127Z" fill="#EBA12A"/>
<path d="M260.44 32.2145C261.447 29.7335 262.797 27.4059 264.451 25.2996L270.765 30.2561C269.574 31.7726 268.602 33.4484 267.877 35.2346L260.44 32.2145Z" fill="#EBA12A"/>
<path d="M307.583 57.9067L301.907 63.5824L310.015 71.6906L315.691 66.0149L307.583 57.9067Z" fill="#6D6D6D"/>
<path d="M286.713 56.76C294.154 56.76 300.186 50.7278 300.186 43.2867C300.186 35.8456 294.154 29.8134 286.713 29.8134C279.272 29.8134 273.24 35.8456 273.24 43.2867C273.24 50.7278 279.272 56.76 286.713 56.76Z" fill="#EBA12A" fill-opacity="0.4"/>
</svg>
