<svg width="20" height="20" viewBox="0 0 20 20" fill="none" xmlns="http://www.w3.org/2000/svg">
<g clip-path="url(#clip0_1286_3209)">
<path d="M9.99984 1.66675C14.6022 1.66675 18.3332 5.39771 18.3332 10.0001C18.3332 14.6024 14.6022 18.3334 9.99984 18.3334C5.39746 18.3334 1.6665 14.6024 1.6665 10.0001C1.6665 5.39771 5.39746 1.66675 9.99984 1.66675ZM9.99984 12.5001C9.53959 12.5001 9.1665 12.8732 9.1665 13.3334C9.1665 13.7937 9.53959 14.1667 9.99984 14.1667C10.4601 14.1667 10.8332 13.7937 10.8332 13.3334C10.8332 12.8732 10.4601 12.5001 9.99984 12.5001ZM9.99984 5.00008C9.57246 5.00008 9.22024 5.32178 9.17211 5.73623L9.1665 5.83341V10.8334C9.1665 11.2937 9.53959 11.6667 9.99984 11.6667C10.4272 11.6667 10.7794 11.3451 10.8276 10.9306L10.8332 10.8334V5.83341C10.8332 5.37318 10.4601 5.00008 9.99984 5.00008Z" fill="#FF5050"/>
</g>
<defs>
<clipPath id="clip0_1286_3209">
<rect width="20" height="20" fill="white"/>
</clipPath>
</defs>
</svg>
